<?xml version="1.0" encoding="utf-8"?>
<!-- Generator: Adobe Illustrator 16.0.0, SVG Export Plug-In . SVG Version: 6.00 Build 0)  -->
<!DOCTYPE svg PUBLIC "-//W3C//DTD SVG 1.1//EN" "http://www.w3.org/Graphics/SVG/1.1/DTD/svg11.dtd">
<svg version="1.1" id="Layer_1" xmlns="http://www.w3.org/2000/svg" xmlns:xlink="http://www.w3.org/1999/xlink" x="0px" y="0px"
	 width="64.667px" height="64.667px" viewBox="0 0 64.667 64.667" enable-background="new 0 0 64.667 64.667" xml:space="preserve">
<path fill="#19453B" stroke="#19453B" stroke-miterlimit="10" d="M49.863,25.859c0,9.682-17.529,30.479-17.529,30.479
	S14.805,35.541,14.805,25.859c0-9.681,7.848-17.529,17.529-17.529S49.863,16.178,49.863,25.859z"/>
<path fill="#19453B" stroke="#19453B" stroke-miterlimit="10" d="M46.253,27.193c0,7.688-13.919,24.2-13.919,24.2
	s-13.919-16.513-13.919-24.2c0-7.688,6.233-13.919,13.919-13.919C40.022,13.273,46.253,19.504,46.253,27.193z"/>
<g>
	<path fill="#19453B" stroke="#19453B" stroke-miterlimit="10" d="M-28.525,20.915c0,9.681-17.529,30.479-17.529,30.479
		s-17.529-20.798-17.529-30.479s7.848-17.529,17.529-17.529C-36.373,3.386-28.525,11.233-28.525,20.915z"/>
	<path fill="#FFFFFF" stroke="#19453B" stroke-miterlimit="10" d="M-32.135,22.249c0,7.688-13.919,24.2-13.919,24.2
		s-13.919-16.513-13.919-24.2c0-7.688,6.233-13.919,13.919-13.919C-38.366,8.329-32.135,14.56-32.135,22.249z"/>
	<path fill="#19453B" stroke="#19453B" stroke-width="0.75" stroke-miterlimit="10" d="M-41.029,34.908h-9.506v-1.99H-47V19.848
		h-3.535v-1.781c1.336,0,2.32-0.19,2.953-0.569c0.633-0.38,0.988-1.098,1.067-2.153h2.03v17.573h3.455L-41.029,34.908
		L-41.029,34.908z"/>
</g>
</svg>
